<?xml version="1.0" encoding="UTF-8" standalone="no"?>
<!-- Created with Inkscape (http://www.inkscape.org/) -->

<svg
   xmlns:dc="http://purl.org/dc/elements/1.1/"
   xmlns:cc="http://creativecommons.org/ns#"
   xmlns:rdf="http://www.w3.org/1999/02/22-rdf-syntax-ns#"
   xmlns:svg="http://www.w3.org/2000/svg"
   xmlns="http://www.w3.org/2000/svg"
   xmlns:xlink="http://www.w3.org/1999/xlink"
   xmlns:sodipodi="http://sodipodi.sourceforge.net/DTD/sodipodi-0.dtd"
   xmlns:inkscape="http://www.inkscape.org/namespaces/inkscape"
   version="1.0"
   width="96"
   height="96"
   id="svg2408"
   inkscape:version="0.91 r"
   sodipodi:docname="easytag.svg"
   inkscape:export-filename="/home/bardia/path4438.png"
   inkscape:export-xdpi="240"
   inkscape:export-ydpi="240">
  <sodipodi:namedview
     pagecolor="#ffffff"
     bordercolor="#666666"
     borderopacity="1"
     objecttolerance="10"
     gridtolerance="10"
     guidetolerance="10"
     inkscape:pageopacity="0"
     inkscape:pageshadow="2"
     inkscape:window-width="1319"
     inkscape:window-height="748"
     id="namedview121"
     showgrid="false"
     inkscape:zoom="3.4486434"
     inkscape:cx="19.817434"
     inkscape:cy="33.238286"
     inkscape:window-x="47"
     inkscape:window-y="-3"
     inkscape:window-maximized="1"
     inkscape:current-layer="svg2408" />
  <defs
     id="defs2410">
    <linearGradient
       id="linearGradient4432">
      <stop
         id="stop4434"
         style="stop-color:#e7b67d;stop-opacity:0.71372551"
         offset="0" />
      <stop
         id="stop4436"
         style="stop-color:#e2ac6e;stop-opacity:1"
         offset="1" />
    </linearGradient>
    <linearGradient
       id="linearGradient4199">
      <stop
         id="stop4201"
         style="stop-color:#ffffff;stop-opacity:1"
         offset="0" />
      <stop
         id="stop4203"
         style="stop-color:#ffffff;stop-opacity:0"
         offset="1" />
    </linearGradient>
    <linearGradient
       id="linearGradient3953">
      <stop
         id="stop3955"
         style="stop-color:#d78a26;stop-opacity:1"
         offset="0" />
      <stop
         id="stop3957"
         style="stop-color:#eaac5e;stop-opacity:1"
         offset="1" />
    </linearGradient>
    <linearGradient
       id="linearGradient3816">
      <stop
         id="stop3818"
         style="stop-color:#e9e9e9;stop-opacity:1"
         offset="0" />
      <stop
         id="stop3820"
         style="stop-color:#828282;stop-opacity:1"
         offset="1" />
    </linearGradient>
    <linearGradient
       id="linearGradient3785">
      <stop
         id="stop3787"
         style="stop-color:#b77223;stop-opacity:1"
         offset="0" />
      <stop
         id="stop3789"
         style="stop-color:#b27024;stop-opacity:1"
         offset="1" />
    </linearGradient>
    <linearGradient
       id="linearGradient3705">
      <stop
         id="stop3707"
         style="stop-color:#305388;stop-opacity:1"
         offset="0" />
      <stop
         id="stop3709"
         style="stop-color:#7e9fd2;stop-opacity:1"
         offset="1" />
    </linearGradient>
    <linearGradient
       id="linearGradient3680">
      <stop
         id="stop3682"
         style="stop-color:#ebebeb;stop-opacity:1"
         offset="0" />
      <stop
         id="stop3684"
         style="stop-color:#ffffff;stop-opacity:1"
         offset="1" />
    </linearGradient>
    <linearGradient
       x1="45.447727"
       y1="92.539597"
       x2="45.447727"
       y2="7.0165396"
       id="ButtonShadow"
       gradientUnits="userSpaceOnUse"
       gradientTransform="scale(1.0058652,0.994169)">
      <stop
         id="stop3750"
         style="stop-color:#000000;stop-opacity:1"
         offset="0" />
      <stop
         id="stop3752"
         style="stop-color:#000000;stop-opacity:0.58823532"
         offset="1" />
    </linearGradient>
    <linearGradient
       id="linearGradient3737">
      <stop
         id="stop3739"
         style="stop-color:#ffffff;stop-opacity:1"
         offset="0" />
      <stop
         id="stop3741"
         style="stop-color:#ffffff;stop-opacity:0"
         offset="1" />
    </linearGradient>
    <filter
       color-interpolation-filters="sRGB"
       id="filter3174">
      <feGaussianBlur
         id="feGaussianBlur3176"
         stdDeviation="1.71" />
    </filter>
    <linearGradient
       x1="36.357143"
       y1="6"
       x2="36.357143"
       y2="63.893143"
       id="linearGradient3188"
       xlink:href="#linearGradient3737"
       gradientUnits="userSpaceOnUse" />
    <filter
       x="-0.192"
       y="-0.192"
       width="1.3839999"
       height="1.3839999"
       color-interpolation-filters="sRGB"
       id="filter3794">
      <feGaussianBlur
         id="feGaussianBlur3796"
         stdDeviation="5.28" />
    </filter>
    <linearGradient
       x1="48"
       y1="20.220806"
       x2="48"
       y2="138.66119"
       id="linearGradient3613"
       xlink:href="#linearGradient3737"
       gradientUnits="userSpaceOnUse" />
    <radialGradient
       cx="48"
       cy="90.171875"
       r="42"
       fx="48"
       fy="90.171875"
       id="radialGradient3619"
       xlink:href="#linearGradient3737"
       gradientUnits="userSpaceOnUse"
       gradientTransform="matrix(1.1573129,0,0,0.99590774,-7.5510206,0.19713193)" />
    <clipPath
       id="clipPath3613">
      <rect
         width="84"
         height="84"
         rx="6"
         ry="6"
         x="6"
         y="6"
         id="rect3615"
         style="fill:#ffffff;fill-opacity:1;fill-rule:nonzero;stroke:none" />
    </clipPath>
    <linearGradient
       x1="45.447727"
       y1="92.539597"
       x2="45.447727"
       y2="7.0165396"
       id="ButtonShadow-0"
       gradientUnits="userSpaceOnUse"
       gradientTransform="matrix(1.0058652,0,0,0.994169,100,0)">
      <stop
         id="stop3750-8"
         style="stop-color:#000000;stop-opacity:1"
         offset="0" />
      <stop
         id="stop3752-5"
         style="stop-color:#000000;stop-opacity:0.58823532"
         offset="1" />
    </linearGradient>
    <linearGradient
       x1="32.251034"
       y1="6.1317081"
       x2="32.251034"
       y2="90.238609"
       id="linearGradient3721"
       xlink:href="#ButtonShadow-0"
       gradientUnits="userSpaceOnUse"
       gradientTransform="matrix(1,0,0,-1,0,97)" />
    <linearGradient
       x1="59.445351"
       y1="69.246223"
       x2="59.445351"
       y2="13.154833"
       id="linearGradient3686"
       xlink:href="#linearGradient3680"
       gradientUnits="userSpaceOnUse"
       gradientTransform="matrix(0.97368421,0,0,0.9736825,1.2631579,1.2633047)" />
    <linearGradient
       x1="72"
       y1="80"
       x2="32"
       y2="8"
       id="linearGradient3711"
       xlink:href="#linearGradient3705"
       gradientUnits="userSpaceOnUse"
       gradientTransform="translate(90,0)" />
    <linearGradient
       x1="72"
       y1="80"
       x2="32"
       y2="16"
       id="linearGradient3719"
       xlink:href="#linearGradient3705"
       gradientUnits="userSpaceOnUse"
       gradientTransform="translate(90,0)" />
    <linearGradient
       x1="48"
       y1="40"
       x2="60.594677"
       y2="87.003983"
       id="linearGradient3791"
       xlink:href="#linearGradient3785"
       gradientUnits="userSpaceOnUse"
       gradientTransform="matrix(0.97368421,0,0,0.9736825,1.2631579,1.2633047)" />
    <linearGradient
       x1="48"
       y1="90"
       x2="48"
       y2="5.9877172"
       id="linearGradient3812"
       xlink:href="#linearGradient3953"
       gradientUnits="userSpaceOnUse" />
    <linearGradient
       x1="10"
       y1="16.5"
       x2="23"
       y2="16.5"
       id="linearGradient3822"
       xlink:href="#linearGradient3816"
       gradientUnits="userSpaceOnUse"
       gradientTransform="matrix(0,-1,-1,0,33,33)" />
    <linearGradient
       x1="10"
       y1="16.5"
       x2="23"
       y2="16.5"
       id="linearGradient3830"
       xlink:href="#linearGradient3816"
       gradientUnits="userSpaceOnUse"
       gradientTransform="matrix(0,1,-1,0,33,0)" />
    <linearGradient
       x1="32.251034"
       y1="6.1317081"
       x2="32.251034"
       y2="90.238609"
       id="linearGradient3847"
       xlink:href="#ButtonShadow-0"
       gradientUnits="userSpaceOnUse"
       gradientTransform="matrix(1.0238095,0,0,-1.0119048,-1.1428571,98.071429)" />
    <linearGradient
       x1="32.251034"
       y1="6.1317081"
       x2="32.251034"
       y2="90.238609"
       id="linearGradient3858"
       xlink:href="#ButtonShadow-0"
       gradientUnits="userSpaceOnUse"
       gradientTransform="matrix(1.0238095,0,0,-1.0119048,-1.1428571,98.071429)" />
    <linearGradient
       x1="32.251034"
       y1="6.1317081"
       x2="32.251034"
       y2="90.238609"
       id="linearGradient3866"
       xlink:href="#ButtonShadow-0"
       gradientUnits="userSpaceOnUse"
       gradientTransform="matrix(1.0238095,0,0,-1.0119048,-1.1428571,98.071429)" />
    <linearGradient
       x1="32.251034"
       y1="6.1317081"
       x2="32.251034"
       y2="90.238609"
       id="linearGradient3875"
       xlink:href="#ButtonShadow-0"
       gradientUnits="userSpaceOnUse"
       gradientTransform="matrix(1.0238095,0,0,-1.0119048,-1.1428571,98.071429)" />
    <linearGradient
       x1="47.474781"
       y1="51.296783"
       x2="45.96315"
       y2="-22.609013"
       id="linearGradient4205"
       xlink:href="#linearGradient4199"
       gradientUnits="userSpaceOnUse"
       gradientTransform="translate(100,0)" />
    <linearGradient
       x1="35.951328"
       y1="9.965951"
       x2="35.951328"
       y2="85.237114"
       id="linearGradient4430"
       xlink:href="#linearGradient4432"
       gradientUnits="userSpaceOnUse"
       gradientTransform="matrix(0.97368421,0,0,0.9736825,1.2631579,1.2633047)" />
    <linearGradient
       inkscape:collect="always"
       xlink:href="#linearGradient3785"
       id="linearGradient3105"
       gradientUnits="userSpaceOnUse"
       gradientTransform="matrix(0.97368421,0,0,0.9736825,1.2631579,1.2633047)"
       x1="48"
       y1="40"
       x2="60.594677"
       y2="87.003983" />
    <linearGradient
       inkscape:collect="always"
       xlink:href="#linearGradient4432"
       id="linearGradient3108"
       gradientUnits="userSpaceOnUse"
       gradientTransform="matrix(0.97368421,0,0,0.9736825,1.2631579,1.2633047)"
       x1="35.951328"
       y1="9.965951"
       x2="35.951328"
       y2="85.237114" />
    <linearGradient
       inkscape:collect="always"
       xlink:href="#linearGradient4199"
       id="linearGradient3113"
       gradientUnits="userSpaceOnUse"
       gradientTransform="translate(100,0)"
       x1="47.474781"
       y1="51.296783"
       x2="45.96315"
       y2="-22.609013" />
    <linearGradient
       inkscape:collect="always"
       xlink:href="#linearGradient3705"
       id="linearGradient3116"
       gradientUnits="userSpaceOnUse"
       gradientTransform="translate(90,0)"
       x1="72"
       y1="80"
       x2="32"
       y2="16" />
    <linearGradient
       inkscape:collect="always"
       xlink:href="#linearGradient3705"
       id="linearGradient3119"
       gradientUnits="userSpaceOnUse"
       gradientTransform="translate(90,0)"
       x1="72"
       y1="80"
       x2="32"
       y2="8" />
    <linearGradient
       inkscape:collect="always"
       xlink:href="#linearGradient3680"
       id="linearGradient3127"
       gradientUnits="userSpaceOnUse"
       gradientTransform="matrix(0.97368421,0,0,0.9736825,1.2631579,1.2633047)"
       x1="59.445351"
       y1="69.246223"
       x2="59.445351"
       y2="13.154833" />
    <radialGradient
       inkscape:collect="always"
       xlink:href="#linearGradient3737"
       id="radialGradient3130"
       gradientUnits="userSpaceOnUse"
       gradientTransform="matrix(1.1573129,0,0,0.99590774,-7.5510206,0.19713193)"
       cx="48"
       cy="90.171875"
       fx="48"
       fy="90.171875"
       r="42" />
    <linearGradient
       inkscape:collect="always"
       xlink:href="#linearGradient3737"
       id="linearGradient3133"
       gradientUnits="userSpaceOnUse"
       x1="36.357143"
       y1="6"
       x2="36.357143"
       y2="63.893143" />
    <linearGradient
       inkscape:collect="always"
       xlink:href="#linearGradient3953"
       id="linearGradient3136"
       gradientUnits="userSpaceOnUse"
       x1="48"
       y1="90"
       x2="48"
       y2="5.9877172" />
    <linearGradient
       inkscape:collect="always"
       xlink:href="#linearGradient3816"
       id="linearGradient3138"
       gradientUnits="userSpaceOnUse"
       gradientTransform="matrix(0,-1,-1,0,33,33)"
       x1="10"
       y1="16.5"
       x2="23"
       y2="16.5" />
    <linearGradient
       inkscape:collect="always"
       xlink:href="#linearGradient3816"
       id="linearGradient3140"
       gradientUnits="userSpaceOnUse"
       gradientTransform="matrix(0,1,-1,0,33,0)"
       x1="10"
       y1="16.5"
       x2="23"
       y2="16.5" />
    <linearGradient
       inkscape:collect="always"
       xlink:href="#linearGradient3816"
       id="linearGradient3143"
       gradientUnits="userSpaceOnUse"
       gradientTransform="matrix(0,1.0243367,-1.0243367,0,33.401556,-0.40155621)"
       x1="10"
       y1="16.5"
       x2="23"
       y2="16.5" />
  </defs>
  <metadata
     id="metadata2413">
    <rdf:RDF>
      <cc:Work
         rdf:about="">
        <dc:format>image/svg+xml</dc:format>
        <dc:type
           rdf:resource="http://purl.org/dc/dcmitype/StillImage" />
        <dc:title />
      </cc:Work>
    </rdf:RDF>
  </metadata>
  <rect
     style="opacity:1;fill:#e09330;fill-opacity:1"
     id="rect3440"
     width="83.728577"
     height="83.946053"
     x="6.0893512"
     y="5.8921032"
     ry="7.0317507" />
  <g
     id="layer2"
     style="display:none">
    <rect
       width="86"
       height="85"
       rx="6"
       ry="6"
       x="5"
       y="7"
       id="rect3745"
       style="opacity:0.9;fill:url(#ButtonShadow);fill-opacity:1;fill-rule:nonzero;stroke:none;filter:url(#filter3174)" />
  </g>
  <path
     style="color:#000000;fill:#f7f7f7;fill-opacity:1;fill-rule:nonzero;stroke:none;stroke-width:1;marker:none;visibility:visible;display:inline;overflow:visible;enable-background:accumulate"
     id="rect3648"
     inkscape:connector-curvature="0"
     d="m 28.526316,12.947494 0,3.89473 c 0,5.91525 -4.795266,10.710509 -10.710527,10.710509 l -4.868421,0 0,51.605172 c 0,2.15768 1.737053,3.89473 3.894737,3.89473 l 62.31579,0 c 2.157684,0 3.894737,-1.73705 3.894737,-3.89473 l 0,-62.315681 c 0,-2.15768 -1.737053,-3.89473 -3.894737,-3.89473 l -50.631579,0 z" />
  <path
     d="m 23.991309,16.5 c 0,-4.137336 -3.353973,-7.4913089 -7.491309,-7.4913089 -4.137336,0 -7.4913089,3.3539729 -7.4913089,7.4913089 0,4.137336 3.3539729,7.491309 7.4913089,7.491309 4.137336,0 7.491309,-3.353973 7.491309,-7.491309 z m -1.152509,0 c 0,3.500822 -2.837978,6.3388 -6.3388,6.3388 -3.500822,0 -6.3388,-2.837978 -6.3388,-6.3388 0,-3.500822 2.837978,-6.3388 6.3388,-6.3388 3.500822,0 6.3388,2.837978 6.3388,6.3388 z"
     inkscape:connector-curvature="0"
     id="path4438"
     style="opacity:0.3;color:#000000;fill:#ffffff;fill-opacity:1;fill-rule:nonzero;stroke:none;stroke-width:1;marker:none;visibility:visible;display:inline;overflow:visible;enable-background:accumulate" />
  <path
     d="M 23,16.5 C 23,20.089851 20.089851,23 16.5,23 12.910149,23 10,20.089851 10,16.5 10,12.910149 12.910149,10 16.5,10 c 3.589851,0 6.5,2.910149 6.5,6.5 z m -2,0 C 21,14.014719 18.985281,12 16.5,12 14.014719,12 12,14.014719 12,16.5 c 0,2.485281 2.014719,4.5 4.5,4.5 2.485281,0 4.5,-2.014719 4.5,-4.5 z"
     inkscape:connector-curvature="0"
     id="path3799"
     style="color:#000000;fill:#ffffff;fill-opacity:1;fill-rule:nonzero;stroke:none;stroke-width:1;marker:none;visibility:visible;display:inline;overflow:visible;enable-background:accumulate" />
  <g
     id="layer4"
     style="display:inline"
     transform="matrix(1,0,0,1.1949346,0,-14.815034)">
    <rect
       width="56"
       height="1.0881424"
       x="20"
       y="38.911858"
       id="rect4190"
       style="color:#000000;display:inline;overflow:visible;visibility:visible;opacity:0.15;fill:#000000;fill-opacity:1;fill-rule:nonzero;stroke:none;stroke-width:1;marker:none;enable-background:accumulate" />
    <rect
       width="56"
       height="1.0881424"
       x="20"
       y="50.911858"
       id="rect3877"
       style="color:#000000;display:inline;overflow:visible;visibility:visible;opacity:0.15;fill:#000000;fill-opacity:1;fill-rule:nonzero;stroke:none;stroke-width:1;marker:none;enable-background:accumulate" />
    <rect
       width="56"
       height="1.0881424"
       x="20"
       y="62.911858"
       id="rect3905"
       style="color:#000000;display:inline;overflow:visible;visibility:visible;opacity:0.15;fill:#000000;fill-opacity:1;fill-rule:nonzero;stroke:none;stroke-width:1;marker:none;enable-background:accumulate" />
    <rect
       width="56"
       height="1.0881424"
       x="20"
       y="74.911858"
       id="rect4188"
       style="color:#000000;display:inline;overflow:visible;visibility:visible;opacity:0.15;fill:#000000;fill-opacity:1;fill-rule:nonzero;stroke:none;stroke-width:1;marker:none;enable-background:accumulate" />
    <rect
       width="43.977989"
       height="1.0881424"
       x="32.022011"
       y="26.911858"
       id="rect4207"
       style="color:#000000;display:inline;overflow:visible;visibility:visible;opacity:0.15;fill:#000000;fill-opacity:1;fill-rule:nonzero;stroke:none;stroke-width:1;marker:none;enable-background:accumulate" />
  </g>
  <g
     id="layer6"
     style="display:none">
    <g
       transform="translate(2,0)"
       id="g3968"
       style="font-size:15.361413px;font-style:normal;font-variant:normal;font-weight:bold;font-stretch:normal;text-align:start;line-height:125%;writing-mode:lr-tb;text-anchor:start;fill:#1e3352;fill-opacity:1;stroke:none;font-family:dwerneck;-inkscape-font-specification:dwerneck Bold">
      <path
         d="m 23.947883,33.230141 0,0.614457 c 0.614452,-0.08192 1.290354,-0.189448 2.027707,-0.32259 0.747582,-0.133122 1.49517,-0.235532 2.242766,-0.307228 0.757821,-0.08192 1.484927,-0.10752 2.181321,-0.07681 0.706613,0.02049 1.33131,0.143383 1.874092,0.368674 -0.614468,0.389165 -1.285249,0.681031 -2.012345,0.8756 -0.716876,0.194587 -1.454223,0.358442 -2.212044,0.491566 -0.747596,0.13314 -1.500304,0.276513 -2.258127,0.430119 -0.757835,0.143381 -1.484941,0.368681 -2.181321,0.675902 l -0.614456,0.937046 c 0.389152,7e-6 0.824392,-0.04096 1.30572,-0.122891 0.481319,-0.09216 0.962643,-0.168969 1.443972,-0.230421 0.481319,-0.06144 0.93704,-0.0768 1.367166,-0.04608 0.440353,0.03073 0.814147,0.163861 1.121383,0.399396 0.09216,0.153621 0.09216,0.276512 0,0.368674 -0.08193,0.09217 -0.199706,0.168981 -0.353312,0.230422 -0.153622,0.05121 -0.317477,0.102414 -0.491565,0.153614 -0.174104,0.04097 -0.296995,0.09729 -0.368674,0.168975 -0.778318,0.174101 -1.551508,0.348197 -2.319574,0.522288 -0.757833,0.16386 -1.525903,0.409642 -2.304212,0.737348 -2e-6,0.153618 -0.01536,0.322593 -0.04608,0.506927 -0.02048,0.174099 -0.03585,0.348195 -0.04608,0.522288 -2e-6,0.174098 0.0256,0.337953 0.07681,0.491565 0.0512,0.143375 0.153612,0.256026 0.307228,0.337951 0.46084,0.07169 0.942163,0.09729 1.443973,0.07681 0.501802,-0.03072 1.003607,-0.07681 1.505419,-0.138253 0.5018,-0.06144 1.003605,-0.122889 1.505418,-0.184337 0.501799,-0.06144 0.983122,-0.09217 1.443973,-0.09217 0.143364,0.08193 0.250894,0.163857 0.32259,0.245783 0.08192,0.08193 0.138243,0.174098 0.168975,0.276505 0.04096,0.09217 0.06144,0.1997 0.06145,0.32259 0.01023,0.112651 0.01535,0.245784 0.01536,0.399396 -0.696392,0.235543 -1.403017,0.440362 -2.119875,0.614457 -0.716872,0.163855 -1.433737,0.261144 -2.150598,0.291867 -0.706629,0.02048 -1.403012,-0.05633 -2.089152,-0.230421 -0.686145,-0.184337 -1.336444,-0.506926 -1.950899,-0.967769 -0.235543,-0.08193 -0.399397,-0.23042 -0.491566,-0.445481 -0.09217,-0.215058 -0.148493,-0.45572 -0.168975,-0.721987 -0.02048,-0.276502 -0.02048,-0.558128 0,-0.844878 0.02048,-0.286742 0.03072,-0.547886 0.03072,-0.783432 0.2253,-0.532524 0.424998,-1.080414 0.599095,-1.643671 0.174095,-0.573486 0.348191,-1.141858 0.522288,-1.705117 0.184335,-0.563243 0.378913,-1.111133 0.583734,-1.643671 0.204816,-0.532519 0.46084,-1.029204 0.76807,-1.490057 0.317466,1.1e-5 0.604213,0.07682 0.860239,0.230421 0.266261,0.153625 0.399393,0.389166 0.399397,0.706625"
         inkscape:connector-curvature="0"
         id="path3970" />
      <path
         d="m 36.219732,37.838565 c 0.112644,0.215065 0.17409,0.440365 0.184337,0.675902 0.01024,0.235546 -6e-6,0.471088 -0.03072,0.706625 -0.02049,0.225305 -0.05121,0.450605 -0.09217,0.675903 -0.03073,0.215062 -0.04097,0.419881 -0.03072,0.614456 0.01023,0.19458 0.06144,0.373797 0.153614,0.53765 0.09216,0.163856 0.250897,0.302109 0.476204,0.414758 0.327703,10e-7 0.634931,-0.03072 0.921685,-0.09217 0.296979,-0.07169 0.578605,-0.138251 0.844877,-0.199698 0.276497,-0.07169 0.537641,-0.117769 0.783432,-0.138253 0.256015,-0.03072 0.506917,-0.0051 0.75271,0.07681 0.08192,0.09217 0.158724,0.1997 0.230421,0.32259 0.07168,0.112652 0.128001,0.230422 0.168975,0.353312 0.04095,0.122893 0.05632,0.245784 0.04609,0.368674 -1.1e-5,0.112651 -0.04097,0.20994 -0.122892,0.291867 -0.32772,0.08193 -0.655429,0.194578 -0.98313,0.337951 -0.327719,0.133133 -0.660549,0.250903 -0.998492,0.353313 -0.327718,0.102409 -0.655428,0.163854 -0.98313,0.184337 -0.327717,0.02048 -0.655427,-0.0512 -0.983131,-0.21506 -0.163861,-0.08193 -0.332836,-0.194578 -0.506926,-0.337951 -0.163861,-0.143373 -0.332836,-0.276505 -0.506927,-0.399397 -0.16386,-0.12289 -0.332836,-0.215059 -0.506927,-0.276505 -0.163859,-0.06144 -0.327714,-0.0512 -0.491565,0.03072 -0.153618,0.327711 -0.348196,0.542771 -0.583734,0.64518 -0.235545,0.102409 -0.491568,0.133132 -0.76807,0.09217 -0.266267,-0.04096 -0.542772,-0.133132 -0.829517,-0.276505 -0.276507,-0.143373 -0.53765,-0.296987 -0.783432,-0.460843 -0.08193,-0.08193 -0.199699,-0.163854 -0.353312,-0.245782 -0.143374,-0.09217 -0.286747,-0.189456 -0.43012,-0.291867 -0.143373,-0.102408 -0.271385,-0.215058 -0.384035,-0.337951 -0.102409,-0.13313 -0.153614,-0.286744 -0.153614,-0.460842 0.245782,-0.409636 0.54789,-0.78343 0.906323,-1.121384 0.368673,-0.337947 0.757828,-0.660536 1.167468,-0.967769 0.419876,-0.307223 0.849995,-0.609331 1.290358,-0.906323 0.440357,-0.307223 0.865356,-0.624692 1.274998,-0.952408 0.153609,7e-6 0.291862,0.03585 0.414758,0.10753 0.133127,0.07169 0.250898,0.158741 0.353312,0.261144 0.112645,0.09217 0.209934,0.199704 0.291867,0.32259 0.09216,0.112656 0.179211,0.215065 0.261144,0.307228 m -3.318065,3.271981 c 0.09217,-0.163853 0.225298,-0.291864 0.399397,-0.384035 0.174093,-0.102407 0.332827,-0.215057 0.476203,-0.337951 0.14337,-0.122889 0.240659,-0.276503 0.291867,-0.460843 0.0512,-0.194574 -3e-6,-0.455718 -0.153614,-0.783432 l -1.336443,1.643672 c -2e-6,0.163857 0.01024,0.261145 0.03072,0.291866 0.03072,0.02048 0.128009,0.03073 0.291867,0.03072"
         inkscape:connector-curvature="0"
         id="path3972" />
      <path
         d="m 44.682911,35.82622 c 0.06144,0.133139 0.0768,0.25091 0.04609,0.353313 -0.02049,0.09217 -0.07681,0.174102 -0.168976,0.245782 -0.08193,0.06145 -0.189461,0.112657 -0.32259,0.153614 -0.122894,0.03073 -0.250905,0.04609 -0.384035,0.04608 0.266262,0.276511 0.542767,0.558137 0.829516,0.844877 0.286743,0.276511 0.542766,0.568378 0.768071,0.875601 0.225296,0.307232 0.394272,0.634942 0.506927,0.98313 0.122886,0.348196 0.148488,0.72199 0.07681,1.121383 -5e-6,0.419881 -0.07681,0.773193 -0.230422,1.059938 -0.153618,0.276507 -0.348196,0.506928 -0.583733,0.691264 -0.235546,0.184337 -0.50181,0.332831 -0.798794,0.445481 -0.286749,0.102409 -0.568375,0.189457 -0.844877,0.261144 -0.40964,0.143373 -0.809036,0.158734 -1.198191,0.04608 -0.378915,-0.122891 -0.701505,-0.32259 -0.967769,-0.599095 -0.07169,-0.266264 -0.0256,-0.44548 0.138253,-0.53765 0.174096,-0.102408 0.384035,-0.168974 0.629818,-0.199698 0.256022,-0.03072 0.517166,-0.05632 0.783432,-0.07681 0.276503,-0.03072 0.481322,-0.117769 0.614457,-0.261144 0.276502,-0.143372 0.491562,-0.291865 0.645179,-0.445481 0.163852,-0.163853 0.317466,-0.378913 0.460842,-0.64518 0.04096,-0.358429 -0.03585,-0.681019 -0.230421,-0.967769 -0.194581,-0.286742 -0.430122,-0.547886 -0.706625,-0.783432 -0.276508,-0.245777 -0.563254,-0.481319 -0.860239,-0.706625 -0.286748,-0.225295 -0.506928,-0.455716 -0.660541,-0.691263 -0.153615,-0.245777 -0.204819,-0.50692 -0.153614,-0.783432 0.0512,-0.28674 0.281625,-0.614449 0.691264,-0.983131 0.204817,8e-6 0.404515,-0.02047 0.599095,-0.06144 0.204816,-0.0512 0.389153,-0.0768 0.553011,-0.07681 0.174093,7e-6 0.327707,0.04609 0.460842,0.138252 0.133129,0.09218 0.235538,0.276513 0.307228,0.553011"
         inkscape:connector-curvature="0"
         id="path3974" />
      <path
         d="m 48.138267,37.270193 c 0.215058,-0.112645 0.363552,-0.266259 0.445481,-0.460842 0.08193,-0.204813 0.158733,-0.399391 0.230422,-0.583734 0.07168,-0.194571 0.163852,-0.363546 0.276505,-0.506927 0.112648,-0.143366 0.307225,-0.215052 0.583734,-0.21506 l 0.445481,0.660541 c 0.102405,1.208437 0.08704,2.375903 -0.04608,3.502402 -0.122894,1.126506 -0.343075,2.217165 -0.66054,3.271981 -0.317472,1.044575 -0.716869,2.058428 -1.198191,3.04156 -0.481325,0.993368 -1.024095,1.956015 -1.628309,2.887946 -0.266265,0.389149 -0.583734,0.7271 -0.952408,1.013853 -0.368673,0.29698 -0.768069,0.532522 -1.19819,0.706625 -0.430117,0.184329 -0.870477,0.3021 -1.321082,0.353313 -0.460838,0.0512 -0.911439,0.03071 -1.351804,-0.06145 -0.983125,-0.67591 -1.643665,-1.479823 -1.981622,-2.411742 -0.348185,-0.921689 -0.409631,-1.884337 -0.184337,-2.887946 l 0.199698,-0.675902 c 0.112657,0.501804 0.225307,1.013851 0.337951,1.536142 0.102416,0.532525 0.26115,1.024089 0.476204,1.474695 0.204824,0.460837 0.48645,0.849993 0.844878,1.167468 0.348196,0.327703 0.8244,0.542763 1.428611,0.645179 0.655423,-0.102416 1.223795,-0.353319 1.705117,-0.752709 0.481326,-0.389162 0.906324,-0.860245 1.274997,-1.41325 0.368674,-0.542774 0.696384,-1.126507 0.983131,-1.751201 0.296986,-0.6247 0.583732,-1.213554 0.860239,-1.766563 0.215058,-0.880721 0.419877,-1.771682 0.614456,-2.672886 0.204817,-0.911441 0.363551,-1.915052 0.476204,-3.010837 -0.215062,0.05121 -0.430121,0.07681 -0.645179,0.07681 -0.204821,5e-6 -0.399398,-0.03584 -0.583734,-0.10753 -0.174097,-0.07168 -0.327711,-0.174091 -0.460842,-0.307228 -0.122892,-0.143368 -0.20994,-0.327705 -0.261144,-0.553011 -0.06145,-0.163849 -0.112651,-0.317463 -0.153614,-0.460842 -0.03072,-0.143367 -0.05633,-0.28674 -0.07681,-0.43012 -0.01024,-0.143366 -0.02048,-0.302101 -0.03072,-0.476203 -1e-6,-0.174089 -1e-6,-0.373788 0,-0.599096 l 0.476203,-0.445481 c 0.215059,0.112659 0.353312,0.281634 0.414759,0.506927 0.06144,0.215067 0.102408,0.440368 0.122891,0.675902 0.02048,0.235548 0.06144,0.450608 0.122891,0.64518 0.06144,0.194583 0.199697,0.322595 0.414758,0.384035"
         inkscape:connector-curvature="0"
         id="path3976" />
      <path
         d="m 60.142253,33.276226 c -9e-6,0.143382 -0.06145,0.291876 -0.184337,0.445481 -0.1229,0.143382 -0.256033,0.286755 -0.399397,0.430119 l -4.13222,-0.291867 c 0.07168,0.66567 0.0512,1.346692 -0.06144,2.043068 -0.112655,0.696391 -0.261149,1.413256 -0.445481,2.150598 -0.184341,0.737352 -0.373799,1.495181 -0.568373,2.273489 -0.194581,0.768073 -0.327713,1.556624 -0.399396,2.365658 -0.143377,0.143373 -0.337954,0.21506 -0.583734,0.21506 -0.245785,0 -0.440363,-0.07169 -0.583734,-0.21506 -0.19458,-0.491565 -0.302109,-0.972888 -0.322589,-1.443973 -0.02048,-0.481322 0.01024,-0.957525 0.09217,-1.428611 0.08193,-0.47108 0.194576,-0.937043 0.337951,-1.397889 0.143371,-0.460837 0.276503,-0.9268 0.399397,-1.397889 0.133129,-0.471077 0.240659,-0.942159 0.32259,-1.41325 0.08192,-0.481316 0.09728,-0.96776 0.04608,-1.459334 -0.368677,-0.07168 -0.752712,-0.1024 -1.152106,-0.09217 -0.389157,0.01025 -0.768072,0.0051 -1.136745,-0.01536 -0.368674,-0.02047 -0.711745,-0.0768 -1.029214,-0.168975 -0.317469,-0.102401 -0.583733,-0.302099 -0.798794,-0.599095 0.215061,-0.368664 0.465964,-0.609326 0.752709,-0.721987 0.286747,-0.11264 0.583734,-0.179206 0.890962,-0.199698 0.317469,-0.02047 0.634938,-0.03071 0.952408,-0.03072 0.327708,-0.01023 0.640057,-0.08704 0.937046,-0.230421 0.737345,1.1e-5 1.408126,0.0051 2.012345,0.01536 0.614452,0.01025 1.198185,0.05634 1.751201,0.138253 0.553004,0.0717 1.095774,0.189468 1.62831,0.353312 0.532521,0.153625 1.090651,0.378925 1.674394,0.675903"
         inkscape:connector-curvature="0"
         id="path3978" />
      <path
         d="m 62.532152,37.838565 c 0.112644,0.215065 0.17409,0.440365 0.184337,0.675902 0.01023,0.235546 -6e-6,0.471088 -0.03072,0.706625 -0.02049,0.225305 -0.05121,0.450605 -0.09217,0.675903 -0.03073,0.215062 -0.04097,0.419881 -0.03072,0.614456 0.01024,0.19458 0.06144,0.373797 0.153614,0.53765 0.09216,0.163856 0.250897,0.302109 0.476204,0.414758 0.327703,10e-7 0.634931,-0.03072 0.921685,-0.09217 0.296979,-0.07169 0.578605,-0.138251 0.844877,-0.199698 0.276497,-0.07169 0.537641,-0.117769 0.783432,-0.138253 0.256015,-0.03072 0.506917,-0.0051 0.75271,0.07681 0.08192,0.09217 0.158724,0.1997 0.230421,0.32259 0.07168,0.112652 0.128001,0.230422 0.168975,0.353312 0.04095,0.122893 0.05631,0.245784 0.04608,0.368674 -1.1e-5,0.112651 -0.04097,0.20994 -0.122892,0.291867 -0.32772,0.08193 -0.65543,0.194578 -0.98313,0.337951 -0.327719,0.133133 -0.660549,0.250903 -0.998492,0.353313 -0.327718,0.102409 -0.655428,0.163854 -0.98313,0.184337 -0.327717,0.02048 -0.655427,-0.0512 -0.983131,-0.21506 -0.163861,-0.08193 -0.332836,-0.194578 -0.506927,-0.337951 -0.16386,-0.143373 -0.332836,-0.276505 -0.506926,-0.399397 -0.16386,-0.12289 -0.332836,-0.215059 -0.506927,-0.276505 -0.163859,-0.06144 -0.327714,-0.0512 -0.491565,0.03072 -0.153618,0.327711 -0.348196,0.542771 -0.583734,0.64518 -0.235545,0.102409 -0.491568,0.133132 -0.76807,0.09217 -0.266267,-0.04096 -0.542773,-0.133132 -0.829517,-0.276505 -0.276507,-0.143373 -0.537651,-0.296987 -0.783432,-0.460843 -0.08193,-0.08193 -0.199699,-0.163854 -0.353312,-0.245782 -0.143374,-0.09217 -0.286747,-0.189456 -0.43012,-0.291867 -0.143373,-0.102408 -0.271385,-0.215058 -0.384035,-0.337951 -0.102409,-0.13313 -0.153614,-0.286744 -0.153614,-0.460842 0.245782,-0.409636 0.54789,-0.78343 0.906323,-1.121384 0.368673,-0.337947 0.757828,-0.660536 1.167468,-0.967769 0.419876,-0.307223 0.849995,-0.609331 1.290358,-0.906323 0.440357,-0.307223 0.865356,-0.624692 1.274998,-0.952408 0.153609,7e-6 0.291861,0.03585 0.414758,0.10753 0.133127,0.07169 0.250898,0.158741 0.353312,0.261144 0.112645,0.09217 0.209934,0.199704 0.291867,0.32259 0.09216,0.112656 0.179211,0.215065 0.261144,0.307228 m -3.318065,3.271981 c 0.09217,-0.163853 0.225298,-0.291864 0.399397,-0.384035 0.174092,-0.102407 0.332827,-0.215057 0.476203,-0.337951 0.14337,-0.122889 0.240659,-0.276503 0.291867,-0.460843 0.0512,-0.194574 -4e-6,-0.455718 -0.153614,-0.783432 l -1.336443,1.643672 c -2e-6,0.163857 0.01024,0.261145 0.03072,0.291866 0.03072,0.02048 0.128009,0.03073 0.291867,0.03072"
         inkscape:connector-curvature="0"
         id="path3980" />
      <path
         d="m 71.917016,41.37169 c 0.0512,0.563253 0.09216,1.152107 0.122891,1.766563 0.04096,0.624696 0.0512,1.249393 0.03072,1.874092 -0.02049,0.624695 -0.08705,1.23403 -0.199698,1.828008 -0.112655,0.604211 -0.296992,1.167463 -0.553011,1.689756 -0.245786,0.532523 -0.573496,1.013846 -0.983131,1.443973 -0.40964,0.440353 -0.921686,0.803906 -1.536141,1.09066 -0.43012,0.430111 -0.911444,0.650291 -1.443973,0.660541 -0.542769,0.02047 -1.10602,-0.11778 -1.689755,-0.414759 0.573494,-0.3482 1.146986,-0.737355 1.720478,-1.167467 0.573492,-0.430126 1.080419,-0.90633 1.52078,-1.428611 0.4506,-0.512053 0.798791,-1.075304 1.044576,-1.689756 0.256021,-0.604219 0.348189,-1.259638 0.276506,-1.966261 l 0,-2.258127 c -0.143376,0.07169 -0.302111,0.11265 -0.476204,0.122891 -0.174098,0 -0.353315,-0.01536 -0.53765,-0.04608 -0.174097,-0.04096 -0.348193,-0.09217 -0.522288,-0.153614 -0.163856,-0.07169 -0.31747,-0.148494 -0.460842,-0.230422 -0.286747,-0.56325 -0.419879,-1.126502 -0.399397,-1.689755 0.02048,-0.563249 0.240662,-1.136741 0.660541,-1.720478 0.307227,-0.276502 0.650298,-0.471079 1.029215,-0.583734 0.378912,-0.122887 0.711742,-0.112646 0.998491,0.03072 0.348189,0.143377 0.588851,0.332835 0.721987,0.568372 0.143369,0.225304 0.240658,0.471087 0.291867,0.737348 0.06144,0.266267 0.107525,0.537652 0.138252,0.814155 0.03072,0.266266 0.112647,0.506928 0.245783,0.721986 m -2.549995,0.32259 c 0.12289,-0.133131 0.215058,-0.271383 0.276506,-0.414758 0.07168,-0.143372 0.13313,-0.281624 0.184337,-0.414758 0.0512,-0.143371 0.112648,-0.286744 0.184337,-0.43012 0.07168,-0.14337 0.168973,-0.286743 0.291867,-0.43012 -0.122894,0.143377 -0.266267,0.29187 -0.43012,0.445481 -0.163857,0.153617 -0.30723,0.30211 -0.43012,0.445481 -0.112652,0.143376 -0.189459,0.286749 -0.230421,0.43012 -0.03072,0.133134 0.02048,0.256025 0.153614,0.368674"
         inkscape:connector-curvature="0"
         id="path3982" />
    </g>
    <g
       transform="translate(6,0)"
       id="g3984"
       style="font-size:7.42044544px;font-style:normal;font-variant:normal;font-weight:bold;font-stretch:normal;text-align:start;line-height:125%;writing-mode:lr-tb;text-anchor:start;fill:#1e3352;fill-opacity:1;stroke:none;font-family:dwerneck;-inkscape-font-specification:dwerneck Bold">
      <path
         d="m 23.799279,53.680226 c -0.08905,0.08905 -0.197883,0.158308 -0.3265,0.207772 -0.123677,0.04947 -0.257245,0.08905 -0.400704,0.118728 -0.138518,0.02969 -0.277033,0.05442 -0.415545,0.0742 -0.138517,0.01485 -0.267138,0.03711 -0.385863,0.06678 0.05936,0.262193 0.09399,0.549117 0.103886,0.860772 0.0099,0.311662 0.01484,0.633214 0.01484,0.964658 -2e-6,0.326502 0.0049,0.655474 0.01484,0.986919 0.0099,0.326501 0.04452,0.638159 0.103886,0.934976 0.178088,0.02968 0.353705,0.0371 0.526852,0.02226 0.178087,-0.01979 0.348757,-0.03215 0.51201,-0.0371 0.168194,-0.0099 0.331443,10e-7 0.48975,0.02968 0.163245,0.02968 0.319075,0.103887 0.467488,0.222613 -5e-6,0.05442 -0.01979,0.09894 -0.05936,0.133568 -0.03958,0.02968 -0.094,0.05442 -0.163249,0.0742 -0.06431,0.01979 -0.13852,0.03958 -0.222614,0.05936 -0.0841,0.01484 -0.170674,0.0371 -0.259715,0.06678 -0.291875,10e-7 -0.591166,0.01979 -0.897874,0.05936 -0.306715,0.03463 -0.613426,0.07173 -0.920136,0.111307 -0.306713,0.03463 -0.613424,0.06431 -0.920135,0.08904 -0.306712,0.01979 -0.606003,0.01484 -0.897874,-0.01484 -0.05442,-0.05442 -0.08657,-0.116254 -0.09647,-0.185511 -0.0099,-0.0742 -0.01484,-0.168197 -0.01484,-0.281977 0.143461,-0.05936 0.286923,-0.09399 0.430385,-0.103886 0.148409,-0.0099 0.296818,-0.01731 0.445227,-0.02226 0.148408,-0.0099 0.294343,-0.02721 0.437806,-0.05194 0.148408,-0.02473 0.294343,-0.08162 0.437807,-0.17067 -0.05442,-0.267135 -0.08905,-0.563952 -0.103887,-0.890453 -0.0099,-0.326498 -0.01979,-0.657944 -0.02968,-0.99434 -0.0049,-0.336391 -0.02226,-0.665363 -0.05194,-0.986919 -0.02474,-0.321549 -0.08163,-0.61342 -0.170671,-0.875613 -0.113781,0.02969 -0.242402,0.04947 -0.385863,0.05936 -0.138516,0.0099 -0.281977,0.0074 -0.430386,-0.0074 -0.148409,-0.01484 -0.294344,-0.04452 -0.437806,-0.08904 -0.138515,-0.04947 -0.264662,-0.118723 -0.378443,-0.207773 -0.02968,-0.02968 -0.04452,-0.0643 -0.04452,-0.103886 0,-0.03957 0.01237,-0.07667 0.0371,-0.111307 0.01979,-0.03957 0.05194,-0.07173 0.09647,-0.09647 0.03958,-0.02473 0.08904,-0.0371 0.148409,-0.0371 0.118727,6e-6 0.247348,0.005 0.385863,0.01484 0.138514,0.0099 0.277029,0.01237 0.415545,0.0074 0.143461,-0.0099 0.277029,-0.02968 0.400704,-0.05936 0.12862,-0.03462 0.237453,-0.09646 0.326499,-0.185511 0.113779,0.05937 0.234979,0.094 0.363602,0.103886 0.128619,0.005 0.25724,6e-6 0.385863,-0.01484 0.133566,-0.01483 0.267134,-0.02968 0.400704,-0.04452 0.133566,-0.01978 0.262187,-0.0272 0.385864,-0.02226 0.128617,0.005 0.249818,0.03216 0.363601,0.08162 0.113777,0.04453 0.220137,0.126153 0.31908,0.244875"
         inkscape:connector-curvature="0"
         id="path3986" />
      <path
         d="m 29.135159,55.884098 c -0.02474,0.257245 -0.08658,0.489752 -0.185512,0.697522 -0.09894,0.202828 -0.227564,0.385865 -0.385863,0.549113 -0.15336,0.158304 -0.328977,0.301766 -0.526851,0.430386 -0.192935,0.123675 -0.395761,0.239929 -0.608477,0.348761 -0.212722,0.103887 -0.427915,0.200353 -0.645579,0.289397 -0.212721,0.08905 -0.415547,0.175618 -0.608476,0.259716 -0.158305,0 -0.338869,0.02473 -0.541693,0.0742 -0.197879,0.04947 -0.398231,0.09152 -0.601056,0.126148 -0.197879,0.02968 -0.39081,0.0371 -0.578794,0.02226 -0.183038,-0.01979 -0.336394,-0.09399 -0.460068,-0.222613 -0.02473,-0.128621 -0.02473,-0.225087 0,-0.289398 0.02473,-0.06431 0.06431,-0.106359 0.118727,-0.126147 0.05442,-0.02473 0.121201,-0.03463 0.200352,-0.02968 0.0742,1e-6 0.153356,0.0025 0.237454,0.0074 0.0841,0.0049 0.165723,0.0049 0.244875,0 0.0841,-0.0099 0.158302,-0.0371 0.222613,-0.08162 0.321552,-0.09399 0.645578,-0.192931 0.972079,-0.296818 0.331444,-0.103885 0.645576,-0.227559 0.942396,-0.371022 0.296815,-0.143461 0.568898,-0.314131 0.816249,-0.512011 0.247345,-0.202823 0.452644,-0.450171 0.615897,-0.742045 -4e-6,-0.257239 -0.06431,-0.469958 -0.192931,-0.638158 -0.128625,-0.17314 -0.289401,-0.319075 -0.482329,-0.437806 -0.192935,-0.12367 -0.403181,-0.23003 -0.630738,-0.319079 -0.227563,-0.08904 -0.437809,-0.183034 -0.630738,-0.281977 -0.06431,0.262193 -0.106362,0.521908 -0.126148,0.779146 -0.01484,0.252299 -0.01979,0.504594 -0.01484,0.756886 0.0099,0.247351 0.02721,0.492225 0.05194,0.734624 0.02968,0.237456 0.05936,0.46749 0.08904,0.690101 -0.09894,0.06431 -0.187986,0.09399 -0.267136,0.08905 -0.07915,-0.0049 -0.155831,-0.02226 -0.230034,-0.05194 -0.06926,-0.03463 -0.136043,-0.06926 -0.200352,-0.103887 -0.06431,-0.03957 -0.128622,-0.05936 -0.192931,-0.05936 -0.03463,-0.09399 -0.05442,-0.195404 -0.05936,-0.304238 -0.0049,-0.108832 -0.0074,-0.215191 -0.0074,-0.31908 -2e-6,-0.103884 -0.0025,-0.202823 -0.0074,-0.296817 -0.0049,-0.09399 -0.02474,-0.173142 -0.05936,-0.237455 -0.06431,-0.1583 -0.133569,-0.324023 -0.207773,-0.49717 -0.0742,-0.17314 -0.143463,-0.348757 -0.207772,-0.526851 -0.06431,-0.178087 -0.118728,-0.353704 -0.16325,-0.526852 -0.03958,-0.178086 -0.05936,-0.348756 -0.05936,-0.512011 0.02968,-0.158297 0.09399,-0.267131 0.192932,-0.326499 0.103885,-0.05936 0.217665,-0.08904 0.34134,-0.08905 0.12862,6e-6 0.259715,0.01979 0.393284,0.05936 0.133566,0.03463 0.24982,0.06926 0.348761,0.103886 0.19293,0.06432 0.398228,0.128626 0.615897,0.192932 0.217664,0.05937 0.432856,0.126152 0.645579,0.200352 0.212716,0.07421 0.420488,0.163254 0.623317,0.267136 0.202822,0.09894 0.385859,0.217671 0.549113,0.356181 0.163245,0.138519 0.30176,0.304242 0.415545,0.49717 0.118722,0.187988 0.200347,0.410601 0.244875,0.66784"
         inkscape:connector-curvature="0"
         id="path3988" />
      <path
         d="m 32.751119,53.962203 0.09647,0.207772 c -0.202829,0.197883 -0.408128,0.3735 -0.615897,0.526852 -0.202829,0.15336 -0.427915,0.309189 -0.675261,0.467488 0.222611,0.04947 0.425436,0.138518 0.608477,0.267136 0.187981,0.123677 0.351231,0.27456 0.489749,0.452647 0.143458,0.173147 0.264659,0.361131 0.363602,0.563954 0.09893,0.202828 0.175613,0.405653 0.230034,0.608477 0.04946,0.252296 0.02968,0.477383 -0.05936,0.67526 -0.08905,0.192933 -0.234984,0.36855 -0.437806,0.526852 -0.202829,0.123674 -0.435336,0.22756 -0.697522,0.311659 -0.262192,0.07915 -0.531801,0.128621 -0.808829,0.148408 -0.272084,0.01484 -0.53922,-0.0049 -0.801408,-0.05936 -0.26219,-0.05442 -0.492223,-0.155829 -0.690101,-0.304238 -0.0742,-0.04947 -0.153356,-0.09894 -0.237454,-0.148409 -0.07915,-0.05442 -0.143463,-0.11378 -0.192932,-0.178091 -0.04947,-0.06431 -0.07668,-0.133567 -0.08163,-0.207772 0,-0.07915 0.0371,-0.168196 0.111307,-0.267137 l 0.09647,-0.200352 c 0.0742,0.04947 0.138514,0.116255 0.192931,0.200352 0.05936,0.07915 0.116253,0.160778 0.17067,0.244875 0.05936,0.07915 0.1212,0.153357 0.185511,0.222614 0.06926,0.06431 0.153355,0.111307 0.252296,0.140988 0.222612,0.02473 0.447698,0.02968 0.67526,0.01484 0.232506,-0.01979 0.457592,-0.06431 0.675261,-0.133568 0.22261,-0.06926 0.430383,-0.165723 0.623317,-0.289397 0.197875,-0.12862 0.373492,-0.29187 0.526852,-0.48975 0.02473,-0.148407 0.0099,-0.291869 -0.04452,-0.430386 -0.05442,-0.138513 -0.128624,-0.267134 -0.222613,-0.385863 -0.094,-0.118725 -0.197882,-0.225084 -0.311659,-0.319079 -0.113783,-0.09894 -0.220143,-0.185508 -0.319079,-0.259716 -0.11873,-0.04947 -0.23993,-0.07173 -0.363602,-0.06678 -0.118729,0.005 -0.237456,0.02227 -0.356181,0.05194 -0.118729,0.02474 -0.234983,0.05195 -0.348761,0.08163 -0.113782,0.02968 -0.222615,0.04205 -0.3265,0.0371 -0.09894,-0.0049 -0.192933,-0.0371 -0.281977,-0.09647 -0.0841,-0.05936 -0.158303,-0.163247 -0.222613,-0.311659 l 0.103886,-0.296818 c 0.296817,-0.148405 0.588687,-0.304234 0.875613,-0.467488 0.286922,-0.168192 0.556531,-0.378438 0.808828,-0.630738 -0.222615,5e-6 -0.440282,0.01485 -0.652999,0.04452 -0.212721,0.02969 -0.42544,0.05937 -0.638158,0.08904 -0.212721,0.02969 -0.42544,0.05442 -0.638159,0.0742 -0.212719,0.01485 -0.430386,0.0099 -0.652999,-0.01484 -0.05442,-0.04946 -0.106359,-0.09646 -0.155829,-0.140989 -0.04947,-0.04947 -0.09894,-0.09893 -0.148409,-0.148408 0,-0.05441 0.01979,-0.106355 0.05936,-0.15583 0.03958,-0.04946 0.0841,-0.09893 0.133568,-0.148409 0.301765,5e-6 0.596109,-0.01978 0.883033,-0.05936 0.29187,-0.03957 0.581267,-0.0742 0.868193,-0.103886 0.286922,-0.03462 0.573845,-0.05194 0.860771,-0.05194 0.286921,6e-6 0.578792,0.03958 0.875613,0.118728 l 0.215193,0.289397"
         inkscape:connector-curvature="0"
         id="path3990" />
      <path
         d="m 39.474737,56.255121 c 0.05441,0.103888 0.0841,0.212721 0.08905,0.326499 0.0049,0.113782 -2e-6,0.227562 -0.01484,0.341341 -0.0099,0.108835 -0.02474,0.217668 -0.04452,0.326499 -0.01484,0.103888 -0.01979,0.202827 -0.01484,0.296818 0.0049,0.09399 0.02968,0.180565 0.0742,0.259716 0.04452,0.07915 0.121198,0.145936 0.230034,0.200352 0.1583,0 0.306709,-0.01484 0.445227,-0.04452 0.143458,-0.03463 0.2795,-0.06678 0.408125,-0.09647 0.133563,-0.03463 0.259711,-0.05689 0.378442,-0.06678 0.12367,-0.01484 0.24487,-0.0025 0.363602,0.0371 0.03957,0.04452 0.07667,0.09647 0.111307,0.15583 0.03462,0.05442 0.06183,0.111307 0.08163,0.17067 0.01978,0.05936 0.0272,0.118728 0.02226,0.178091 -5e-6,0.05442 -0.01979,0.101413 -0.05936,0.140988 -0.158307,0.03958 -0.31661,0.09399 -0.474908,0.16325 -0.158307,0.06431 -0.319083,0.121201 -0.482329,0.17067 -0.158307,0.04947 -0.316609,0.07915 -0.474909,0.08905 -0.158306,0.0099 -0.316608,-0.02473 -0.474908,-0.103887 -0.07915,-0.03957 -0.160779,-0.09399 -0.244875,-0.163249 -0.07915,-0.06926 -0.160779,-0.133568 -0.244874,-0.192932 -0.07915,-0.05936 -0.160779,-0.103886 -0.244875,-0.133568 -0.07915,-0.02968 -0.158305,-0.02473 -0.237454,0.01484 -0.07421,0.158303 -0.168199,0.262189 -0.281977,0.311659 -0.113782,0.04947 -0.237456,0.06431 -0.371023,0.04452 -0.128622,-0.01979 -0.26219,-0.06431 -0.400704,-0.133568 -0.133569,-0.06926 -0.259716,-0.143461 -0.378442,-0.222613 -0.03958,-0.03957 -0.09647,-0.07915 -0.170671,-0.118727 -0.06926,-0.04452 -0.138515,-0.09152 -0.207772,-0.140989 -0.06926,-0.04947 -0.131095,-0.103885 -0.185511,-0.16325 -0.04947,-0.06431 -0.0742,-0.138514 -0.0742,-0.222613 0.118727,-0.197877 0.264663,-0.378441 0.437807,-0.541692 0.17809,-0.163248 0.366074,-0.319078 0.563953,-0.467489 0.202825,-0.148406 0.410597,-0.294341 0.623318,-0.437806 0.212718,-0.148406 0.418016,-0.301762 0.615897,-0.460067 0.0742,3e-6 0.140986,0.01732 0.200352,0.05194 0.06431,0.03463 0.121198,0.07668 0.17067,0.126147 0.05441,0.04453 0.10141,0.09647 0.140989,0.15583 0.04452,0.05442 0.08657,0.103888 0.126147,0.148409 m -1.602816,1.580554 c 0.04452,-0.07915 0.108832,-0.140987 0.192932,-0.185511 0.0841,-0.04947 0.160774,-0.103885 0.230033,-0.16325 0.06926,-0.05936 0.116252,-0.133566 0.140989,-0.222613 0.02473,-0.09399 -2e-6,-0.220138 -0.07421,-0.378443 l -0.645578,0.793988 c -2e-6,0.07915 0.0049,0.126149 0.01484,0.140989 0.01484,0.0099 0.06184,0.01484 0.140989,0.01484"
         inkscape:connector-curvature="0"
         id="path3992" />
      <path
         d="m 43.09545,56.455473 c -10e-7,0.07421 0.0074,0.14099 0.02226,0.200352 0.01979,0.05936 0.0371,0.111308 0.05194,0.155829 0.01979,0.04453 0.0371,0.08657 0.05194,0.126148 0.01979,0.03958 0.02968,0.07915 0.02968,0.118727 0.03463,-0.0742 0.07668,-0.138514 0.126147,-0.192932 0.05442,-0.05936 0.108832,-0.113778 0.16325,-0.16325 0.05441,-0.04947 0.106358,-0.09152 0.15583,-0.126147 0.05441,-0.03957 0.09894,-0.07915 0.133568,-0.118727 0.222611,-0.03957 0.403175,-0.01731 0.541692,0.06678 0.143459,0.07915 0.262186,0.192933 0.356181,0.34134 0.09399,0.148411 0.173141,0.319081 0.237455,0.512011 0.06925,0.192933 0.140985,0.380917 0.215193,0.563954 -4e-6,0.148409 0.0074,0.289398 0.02226,0.422965 0.01484,0.133568 0.02473,0.264663 0.02968,0.393284 0.0099,0.133568 0.01236,0.264662 0.0074,0.393283 -0.005,0.133568 -0.02474,0.274556 -0.05936,0.422966 -0.07421,-1e-6 -0.133572,0.01484 -0.178091,0.04452 -0.04453,0.02968 -0.08657,0.05689 -0.126148,0.08162 -0.03463,0.02968 -0.07421,0.04947 -0.118727,0.05936 -0.03958,0.01484 -0.09647,0.0049 -0.17067,-0.02968 -0.07421,-0.14841 -0.11873,-0.321553 -0.133568,-0.519431 -0.01484,-0.192932 -0.02721,-0.39081 -0.0371,-0.593636 -0.0099,-0.207772 -0.03216,-0.408124 -0.06678,-0.601056 -0.02968,-0.192931 -0.101415,-0.363601 -0.215193,-0.512011 -0.09894,0.04947 -0.185513,0.121202 -0.259716,0.215193 -0.06926,0.08905 -0.13357,0.185512 -0.192931,0.289398 -0.05937,0.103887 -0.118729,0.207773 -0.178091,0.311658 -0.05936,0.09894 -0.128623,0.185512 -0.207773,0.259716 -0.0742,0.06926 -0.163251,0.118727 -0.267136,0.148409 -0.103887,0.02473 -0.230034,0.01237 -0.378442,-0.0371 -0.123675,-0.04947 -0.215194,-0.116254 -0.274557,-0.200352 -0.05442,-0.08904 -0.08904,-0.190458 -0.103886,-0.304239 -0.01484,-0.113779 -0.01484,-0.23498 0,-0.363601 0.01484,-0.133567 0.03216,-0.269609 0.05194,-0.408125 0.01979,-0.138513 0.03463,-0.277028 0.04452,-0.415545 0.01484,-0.138513 0.0099,-0.269607 -0.01484,-0.393284 -1e-6,-0.10883 0.03216,-0.205296 0.09647,-0.289397 0.06431,-0.0841 0.136041,-0.140986 0.215193,-0.17067 0.0841,-0.02968 0.165722,-0.02226 0.244874,0.02226 0.0841,0.04453 0.145935,0.140991 0.185511,0.289398"
         inkscape:connector-curvature="0"
         id="path3994" />
      <path
         d="m 48.980561,52.2555 c 0.07915,0.192938 0.128617,0.410604 0.148409,0.653 0.02473,0.237459 0.03462,0.484807 0.02968,0.742044 -4e-6,0.2523 -0.0074,0.509542 -0.02226,0.771727 -0.01484,0.257246 -0.02226,0.50212 -0.02226,0.734624 -0.108837,0.272086 -0.16078,0.544169 -0.155829,0.816249 0.0049,0.267138 0.02473,0.534274 0.05936,0.801408 0.03957,0.267137 0.07668,0.534273 0.111307,0.801408 0.03462,0.267137 0.02968,0.536746 -0.01484,0.808828 -0.183041,0.113781 -0.368552,0.192932 -0.556533,0.237455 -0.187988,0.04452 -0.383393,0.06678 -0.586216,0.06678 -0.19788,0 -0.405653,-0.01484 -0.623317,-0.04452 -0.212721,-0.03463 -0.435334,-0.07173 -0.66784,-0.111307 -0.07915,-0.07915 -0.173145,-0.158302 -0.281977,-0.237454 -0.103887,-0.07915 -0.207773,-0.163249 -0.311659,-0.252295 -0.103886,-0.08904 -0.200352,-0.180563 -0.289397,-0.274557 -0.08905,-0.09894 -0.153356,-0.205297 -0.192932,-0.319079 0,-0.108832 0,-0.227559 0,-0.356181 0.0049,-0.128619 0.01731,-0.254767 0.0371,-0.378443 0.01979,-0.128619 0.04947,-0.249819 0.08905,-0.363602 0.03957,-0.113777 0.09646,-0.210243 0.17067,-0.289397 0.11378,-0.10883 0.237454,-0.192929 0.371022,-0.252295 0.133568,-0.06431 0.267135,-0.10883 0.400704,-0.133568 0.133567,-0.02968 0.264662,-0.04699 0.393284,-0.05194 0.133566,-0.0049 0.25724,-0.0074 0.371022,-0.0074 0.0742,3e-6 0.155828,0.02969 0.244875,0.08905 0.08904,0.05937 0.170668,0.108836 0.244875,0.148408 0.07915,0.03958 0.143459,0.04947 0.192931,0.02968 0.05441,-0.01978 0.08162,-0.10883 0.08163,-0.267136 L 48.386925,52.2555 c 0.03463,-0.113773 0.07915,-0.185504 0.133568,-0.215192 0.05441,-0.03462 0.10883,-0.04204 0.16325,-0.02226 0.05441,0.0198 0.106357,0.05442 0.155829,0.103886 0.05441,0.04453 0.10141,0.08905 0.140989,0.133568 m -0.942397,4.756506 C 47.963954,56.893283 47.857598,56.79187 47.719085,56.70777 47.585515,56.61873 47.447,56.559363 47.30354,56.529679 c -0.138516,-0.02968 -0.267137,-0.02226 -0.385863,0.02226 -0.118728,0.04453 -0.19788,0.140991 -0.237454,0.289398 -0.06926,0.0841 -0.103887,0.187986 -0.103886,0.311658 -1e-6,0.123676 0.03463,0.222615 0.103886,0.296818 0.237453,0.158304 0.467486,0.274558 0.690101,0.348761 0.227559,0.06926 0.450172,0.103887 0.66784,0.103886 l 0,-0.890453"
         inkscape:connector-curvature="0"
         id="path3996" />
      <path
         d="m 53.604191,56.388689 c 0,0.123676 0,0.259717 0,0.408124 0.0049,0.143464 0.01484,0.289399 0.02968,0.437806 0.01484,0.143464 0.03957,0.281978 0.0742,0.415545 0.03463,0.128622 0.08162,0.239929 0.140988,0.33392 0.08904,-0.123673 0.148408,-0.269608 0.178091,-0.437806 0.03463,-0.168195 0.0742,-0.328972 0.118727,-0.482329 0.04947,-0.153354 0.121199,-0.281975 0.215193,-0.385863 0.09399,-0.108831 0.247346,-0.163248 0.460067,-0.16325 0.123673,0.08905 0.212718,0.187987 0.267136,0.296818 0.05442,0.103888 0.09646,0.212721 0.126148,0.3265 0.02968,0.113781 0.05689,0.232508 0.08163,0.356181 0.02968,0.118728 0.0742,0.239929 0.133568,0.363602 0.09399,-0.08904 0.175615,-0.200351 0.244875,-0.33392 0.06925,-0.138514 0.140985,-0.264661 0.215193,-0.378443 0.07915,-0.118725 0.168193,-0.207771 0.267136,-0.267136 0.09894,-0.05936 0.225083,-0.05936 0.378442,0 0.123671,0.153358 0.210243,0.314134 0.259716,0.482329 0.04947,0.168198 0.0742,0.341341 0.0742,0.519431 -4e-6,0.178091 -0.02226,0.358655 -0.06678,0.541693 -0.03958,0.17809 -0.09152,0.358654 -0.155829,0.541692 -0.05442,0.05936 -0.113784,0.09894 -0.178091,0.118727 -0.05937,0.01979 -0.11873,0.06184 -0.17809,0.126148 -0.05937,-0.09399 -0.094,-0.180565 -0.103887,-0.259716 -0.0099,-0.07915 -0.01237,-0.155829 -0.0074,-0.230034 0.0099,-0.07915 0.01731,-0.155829 0.02226,-0.230033 0.0049,-0.07915 -0.0099,-0.16325 -0.04452,-0.252296 -0.05937,0.05936 -0.108837,0.118728 -0.148409,0.178091 -0.03463,0.05936 -0.07173,0.121201 -0.111307,0.185511 -0.03463,0.05936 -0.07668,0.118727 -0.126148,0.178091 -0.04947,0.06431 -0.118729,0.126147 -0.207772,0.185511 -0.128624,0 -0.252298,-0.0049 -0.371022,-0.01484 -0.11873,-0.0099 -0.242403,-0.04947 -0.371023,-0.118727 l -0.126147,-0.972078 c -0.05936,0.09399 -0.113782,0.195406 -0.16325,0.304238 -0.04947,0.103887 -0.101414,0.215193 -0.155829,0.33392 -0.04947,0.11378 -0.108835,0.230034 -0.178091,0.348761 -0.06431,0.118727 -0.14099,0.239927 -0.230034,0.363602 -0.08905,-10e-7 -0.168197,-0.0025 -0.237454,-0.0074 -0.06431,0 -0.123675,-0.0074 -0.178091,-0.02226 -0.05442,-0.01484 -0.10636,-0.03958 -0.155829,-0.0742 -0.04947,-0.03463 -0.10636,-0.08163 -0.17067,-0.140989 -0.123675,-0.435332 -0.195405,-0.885506 -0.215193,-1.350521 -0.01979,-0.465013 -0.02968,-0.910239 -0.02968,-1.33568 0,-0.153353 0.03216,-0.249819 0.09647,-0.289398 0.06431,-0.04452 0.136041,-0.05194 0.215193,-0.02226 0.07915,0.02969 0.150882,0.08658 0.215193,0.17067 0.06431,0.07915 0.09647,0.163253 0.09647,0.252296"
         inkscape:connector-curvature="0"
         id="path3998" />
      <path
         d="m 59.851279,56.403529 c 0.128618,0.341343 0.187981,0.650528 0.17809,0.927556 -0.0099,0.277031 -0.11873,0.551587 -0.326499,0.82367 -0.267139,0.267136 -0.561483,0.440279 -0.883033,0.519431 -0.321554,0.07915 -0.653001,0.08163 -0.99434,0.0074 -0.06926,-0.02968 -0.131095,-0.06678 -0.185511,-0.111306 -0.04947,-0.04947 -0.09894,-0.103886 -0.148409,-0.16325 -0.04947,-0.05936 -0.101413,-0.1212 -0.155829,-0.185511 -0.04947,-0.06431 -0.10636,-0.131094 -0.170671,-0.200352 -0.03957,-0.133568 -0.05936,-0.281976 -0.05936,-0.445227 0,-0.163249 0.01731,-0.324025 0.05194,-0.482329 0.03463,-0.163248 0.0841,-0.316604 0.148409,-0.460068 0.06431,-0.143459 0.145935,-0.26466 0.244875,-0.363602 0.168196,-0.237451 0.363601,-0.413068 0.586215,-0.526851 0.222612,-0.118724 0.442751,-0.173141 0.660419,-0.16325 0.222612,0.005 0.427911,0.07668 0.615897,0.215193 0.187982,0.133571 0.333918,0.336396 0.437807,0.608476 m -0.682681,0.534273 c 0.02968,-0.06926 0.03215,-0.140987 0.0074,-0.215193 -0.02474,-0.0742 -0.06679,-0.131093 -0.126147,-0.170671 -0.05937,-0.04452 -0.128623,-0.06183 -0.207773,-0.05194 -0.07421,0.0099 -0.14841,0.06431 -0.222613,0.16325 -0.05442,-0.06431 -0.118729,-0.0742 -0.192932,-0.02968 -0.06926,0.04453 -0.136043,0.103888 -0.200352,0.178091 -0.02968,0.06926 -0.07421,0.145937 -0.133568,0.230034 -0.05442,0.07915 -0.103887,0.165725 -0.148409,0.259715 -0.04452,0.09399 -0.07173,0.19046 -0.08162,0.289398 -0.0049,0.09894 0.02473,0.200353 0.08905,0.304238 l 0.66784,0 c 0.20777,-0.0742 0.351232,-0.200351 0.430386,-0.378443 0.07915,-0.183036 0.118725,-0.375967 0.118727,-0.578794"
         inkscape:connector-curvature="0"
         id="path4000" />
      <path
         d="m 61.40088,56.151234 0,0.281977 c 0.133566,-0.173141 0.262187,-0.32897 0.385863,-0.467488 0.128619,-0.138512 0.262187,-0.257239 0.400704,-0.356181 0.138513,-0.103883 0.286921,-0.190455 0.445226,-0.259716 0.158301,-0.06925 0.338865,-0.118723 0.541693,-0.148409 0.04452,0.158307 0.04947,0.304242 0.01484,0.437807 -0.03463,0.128624 -0.09647,0.252298 -0.185511,0.371022 -0.0841,0.113783 -0.185514,0.225089 -0.304239,0.33392 -0.118729,0.108835 -0.237456,0.217668 -0.356181,0.326499 -0.113782,0.108836 -0.220142,0.222616 -0.319079,0.341341 -0.09894,0.113782 -0.170672,0.239929 -0.215193,0.378443 -0.06926,0.103887 -0.123676,0.220141 -0.16325,0.348761 -0.03958,0.128622 -0.08163,0.257242 -0.126147,0.385863 -0.03958,0.128621 -0.08905,0.249822 -0.148409,0.363602 -0.05936,0.11378 -0.14099,0.205299 -0.244875,0.274556 -0.03958,0 -0.0841,-0.0025 -0.133568,-0.0074 -0.04452,0 -0.09399,-0.0074 -0.148409,-0.02226 -0.04947,-0.01979 -0.09894,-0.04947 -0.148409,-0.08904 -0.04947,-0.03958 -0.09152,-0.09399 -0.126147,-0.16325 -0.03463,-0.237454 -0.05442,-0.477381 -0.05936,-0.719783 0,-0.2424 0.0074,-0.492221 0.02226,-0.749465 0.01979,-0.25724 0.04452,-0.524376 0.0742,-0.801408 0.03463,-0.277027 0.07173,-0.571371 0.111307,-0.883033 -10e-7,-0.02968 0.0074,-0.06678 0.02226,-0.111307 0.01979,-0.04947 0.04452,-0.09646 0.0742,-0.140988 0.03463,-0.04452 0.07668,-0.08162 0.126148,-0.111307 0.05442,-0.02968 0.116253,-0.04452 0.185511,-0.04452 0.103885,0.06926 0.168196,0.15336 0.192932,0.252295 0.02968,0.09894 0.04452,0.205303 0.04452,0.31908 -1e-6,0.108836 -0.0025,0.220143 -0.0074,0.33392 -0.0049,0.113783 0.0099,0.222616 0.04452,0.326499"
         inkscape:connector-curvature="0"
         id="path4002" />
      <path
         d="m 65.013823,56.321905 c -2e-6,0.0841 0.0025,0.183039 0.0074,0.296817 0.0099,0.108836 0.0074,0.220142 -0.0074,0.33392 -0.01484,0.108835 -0.04947,0.212721 -0.103886,0.311659 -0.04947,0.09399 -0.13357,0.170672 -0.252295,0.230034 -0.237456,0.05442 -0.462543,0.06431 -0.67526,0.02968 -0.212721,-0.03957 -0.378444,-0.09152 -0.49717,-0.15583 -0.05936,0.03463 -0.09894,0.07173 -0.118727,0.111307 -0.01484,0.03958 -0.02226,0.07915 -0.02226,0.118727 0,0.04452 0.01237,0.08905 0.0371,0.133568 0.0841,0.113781 0.180564,0.2053 0.289398,0.274557 0.113779,0.06431 0.230032,0.126148 0.348761,0.185511 0.118725,0.05936 0.232505,0.123674 0.34134,0.192931 0.113779,0.06431 0.212718,0.15583 0.296818,0.274557 -0.0841,0.08904 -0.183039,0.133568 -0.296818,0.133568 -0.113781,0 -0.232509,-0.02226 -0.356181,-0.06678 -0.123675,-0.04452 -0.249823,-0.09647 -0.378443,-0.155829 -0.128622,-0.06431 -0.252296,-0.111307 -0.371022,-0.140989 -0.118728,-0.05442 -0.210246,-0.138514 -0.274557,-0.252295 -0.06431,-0.11378 -0.128621,-0.230033 -0.192931,-0.348761 -0.05936,-0.113779 -0.08657,-0.227559 -0.08162,-0.341341 0.0099,-0.118725 0.0371,-0.232505 0.08162,-0.34134 0.04452,-0.108832 0.09894,-0.212718 0.16325,-0.311659 0.06926,-0.09894 0.133567,-0.190456 0.192931,-0.274556 0.118727,-0.148407 0.259715,-0.281975 0.422966,-0.400704 0.168195,-0.123672 0.338865,-0.20777 0.51201,-0.252295 0.178089,-0.04452 0.348759,-0.0371 0.512011,0.02226 0.168195,0.05442 0.309183,0.185514 0.422965,0.393284 m -0.586215,0.111306 c -0.118729,0.06431 -0.232509,0.128623 -0.34134,0.192932 -0.103888,0.06431 -0.183039,0.153358 -0.237455,0.267136 l 0.230034,0 c 0.118726,-0.04947 0.205298,-0.108831 0.259716,-0.178091 0.05936,-0.0742 0.08904,-0.168194 0.08905,-0.281977"
         inkscape:connector-curvature="0"
         id="path4004" />
    </g>
    <rect
       width="56"
       height="1.0881424"
       x="20"
       y="42.911858"
       id="rect4182"
       style="opacity:0.15;color:#000000;fill:#000000;fill-opacity:1;fill-rule:nonzero;stroke:none;stroke-width:1;marker:none;visibility:visible;display:inline;overflow:visible;enable-background:accumulate" />
    <rect
       width="56"
       height="1.0881424"
       x="20"
       y="58.911858"
       id="rect4184"
       style="opacity:0.15;color:#000000;fill:#000000;fill-opacity:1;fill-rule:nonzero;stroke:none;stroke-width:1;marker:none;visibility:visible;display:inline;overflow:visible;enable-background:accumulate" />
    <rect
       width="56"
       height="1.0881424"
       x="20"
       y="74.911858"
       id="rect4186"
       style="opacity:0.15;color:#000000;fill:#000000;fill-opacity:1;fill-rule:nonzero;stroke:none;stroke-width:1;marker:none;visibility:visible;display:inline;overflow:visible;enable-background:accumulate" />
  </g>
  <g
     id="layer5" />
  <text
     xml:space="preserve"
     style="font-style:normal;font-variant:normal;font-weight:normal;font-stretch:normal;font-size:73.34918213px;line-height:125%;font-family:FontAwesome;-inkscape-font-specification:FontAwesome;letter-spacing:0px;word-spacing:0px;fill:#e09330;fill-opacity:1;stroke:none;stroke-width:1px;stroke-linecap:butt;stroke-linejoin:miter;stroke-opacity:1"
     x="25.706127"
     y="74.117279"
     id="text3436-5"
     sodipodi:linespacing="125%"><tspan
       sodipodi:role="line"
       id="tspan3438-0"
       x="25.706127"
       y="74.117279"
       style="font-style:normal;font-variant:normal;font-weight:normal;font-stretch:normal;font-size:73.34918213px;font-family:ubuntu;-inkscape-font-specification:ubuntu;fill:#e09330;fill-opacity:1">P</tspan></text>
</svg>
